<svg xmlns="http://www.w3.org/2000/svg" viewBox="0 0 157 157"><title>cms</title><g id="Layer_2" data-name="Layer 2"><g id="Layer_1-2" data-name="Layer 1"><path d="M43.71,133a19.41,19.41,0,0,1-13.81-5.71L25.63,123a19.51,19.51,0,0,1,0-27.62L54,67a2.33,2.33,0,0,1,3.31,0,2.34,2.34,0,0,1,0,3.3L28.93,98.7a14.89,14.89,0,0,0,0,21L33.2,124a14.87,14.87,0,0,0,21,0L82.61,95.6a14.87,14.87,0,0,0,0-21,2.34,2.34,0,0,1,0-3.3,2.37,2.37,0,0,1,1.66-.69,2.31,2.31,0,0,1,1.64.68,19.56,19.56,0,0,1,0,27.63l-28.4,28.39A19.39,19.39,0,0,1,43.71,133Z"/><path d="M101.34,90.68a2.33,2.33,0,0,1-1.64-4L128.09,58.3a14.87,14.87,0,0,0,0-21L123.82,33a14.87,14.87,0,0,0-21,0L74.41,61.4a14.87,14.87,0,0,0,0,21,2.3,2.3,0,0,1,0,3.3,2.32,2.32,0,0,1-3.3,0,19.54,19.54,0,0,1,0-27.62L99.5,29.71a19.56,19.56,0,0,1,27.62,0L131.39,34a19.53,19.53,0,0,1,0,27.62L103,90A2.27,2.27,0,0,1,101.34,90.68Z"/><rect width="157" height="157" style="fill:none"/></g></g></svg>