<svg xmlns="http://www.w3.org/2000/svg" viewBox="0 0 157 157"><title>design</title><g id="Layer_2" data-name="Layer 2"><g id="Layer_1-2" data-name="Layer 1"><g id="tbmtdr.tif"><path d="M76.7,134.05l-.15-.19-.11-.13-2.11-2.11c-2-2-4-4-6-6-.76-.74-1.6-1.46-2.41-2.17-.45-.39-.89-.77-1.32-1.16l-2.36-2.1c-2.1-1.88-4.27-3.82-6.39-5.75-2.76-2.52-6-5.51-9.16-8.51A189,189,0,0,1,32.58,91.17,87.38,87.38,0,0,1,24,79.34a48.26,48.26,0,0,1-6-14.72c-.36-1.7-.56-3.42-.74-4.94a24.25,24.25,0,0,1-.19-3.56c0-1.46.14-3,.32-4.65a32.57,32.57,0,0,1,2.47-9.23A33.86,33.86,0,0,1,41.11,23.09,31,31,0,0,1,47,21.82c.9-.1,1.82-.16,2.7-.21L51,21.52l.34-.08h.7l.36,0,.46.05,1.44.11c1.1.08,2.22.16,3.35.34a36.28,36.28,0,0,1,9.8,3.07,37.58,37.58,0,0,1,11.07,7.83c.75-.77,1.53-1.55,2.38-2.29a37.24,37.24,0,0,1,10.5-6.36,35.54,35.54,0,0,1,13.15-2.72l.39-.08h.64l.37.07s0,0,0,0h0a35,35,0,0,1,12.78,2.59,33,33,0,0,1,9.43,5.8,34.07,34.07,0,0,1,7.58,9.52,34.82,34.82,0,0,1,3.61,10.49,36.23,36.23,0,0,1,.54,6.54,39.71,39.71,0,0,1-.46,5.64,46.28,46.28,0,0,1-6,16.39,85.77,85.77,0,0,1-9.28,12.9,200.87,200.87,0,0,1-16.34,16.81c-2.93,2.74-5.91,5.45-8.79,8.07l-.42.39c-1.32,1.2-2.65,2.4-4,3.61L79.9,133.82l-2,1.74Zm-25-107.9a31.25,31.25,0,0,0-13.2,2.93,29,29,0,0,0-12,10.58,30.16,30.16,0,0,0-4.71,15,32.78,32.78,0,0,0,.06,3.67c.11,1.42.28,2.83.51,4.19a38.87,38.87,0,0,0,3.72,10.89A71.9,71.9,0,0,0,35,86.79c2.75,3.38,5.94,6.88,10.05,11,7.13,7.19,14.82,14.05,22.27,20.68l.57.51c2.15,1.91,4.37,3.89,6.43,6,1.11,1.14,2.26,2.29,3.38,3.39l.56.56,4.11-3.76,9.29-8.5,4-3.66c3.54-3.24,7.21-6.59,10.77-9.93a185,185,0,0,0,14.08-14.6A85.65,85.65,0,0,0,128.1,78.4,49.82,49.82,0,0,0,132.85,69a34.45,34.45,0,0,0,1.94-18.27A29.77,29.77,0,0,0,132.35,43,29.7,29.7,0,0,0,106.94,26.2l-1.21,0c-1,0-2.11.05-3.23.14a31.45,31.45,0,0,0-4,.59,33.35,33.35,0,0,0-9.36,3.62,32.67,32.67,0,0,0-7.9,6.25c-.29.31-.57.62-.86.95l-1.79,2-1.5-1.57-.24-.26a32.9,32.9,0,0,0-3.76-3.79,34.56,34.56,0,0,0-9.8-5.79,31.79,31.79,0,0,0-9.84-2.12C52.85,26.17,52.29,26.15,51.73,26.15Z"/></g><rect width="157" height="157" style="fill:none"/></g></g></svg>