<svg xmlns="http://www.w3.org/2000/svg" viewBox="0 0 157 157"><title>hosting</title><g id="Layer_2" data-name="Layer 2"><g id="Layer_1-2" data-name="Layer 1"><path d="M124.37,70.18C123.21,50.5,107,34.77,87.43,34.77A38.53,38.53,0,0,0,56.94,50.09l-.51-.22c-.43-.21-.87-.41-1.32-.59L54.36,49c-.44-.15-.89-.29-1.35-.41l-.75-.2c-.5-.11-1-.2-1.51-.27-.22,0-.43-.08-.66-.1a20,20,0,0,0-2.2-.13A19.69,19.69,0,0,0,28.21,67.57c0,.27,0,.55,0,.82h0A30.25,30.25,0,0,0,12.9,94.14,28.12,28.12,0,0,0,41,122.23H94.58c.23,0,.45,0,.68,0h.43c.22,0,.44,0,.67,0H117.8a26.33,26.33,0,0,0,26.3-26.3A26.9,26.9,0,0,0,124.37,70.18Zm-6.57,47.68H96.36l-.38,0-.59,0-.43,0-.38,0H41A23.75,23.75,0,0,1,17.27,94.14,26,26,0,0,1,31.34,71.72l1.24-.59V69.75c0-.27,0-.56,0-.84l0-.35,0-.46a4.71,4.71,0,0,1,0-.53A15.33,15.33,0,0,1,47.89,52.26a14.83,14.83,0,0,1,2,.15l.51.08a14.41,14.41,0,0,1,1.73.38l.23.06a14.85,14.85,0,0,1,1.82.7l.46.22a15.58,15.58,0,0,1,1.54.87,15.3,15.3,0,0,1,7,12.85,2.19,2.19,0,0,0,4.38,0,19.64,19.64,0,0,0-7-15,34.63,34.63,0,0,1,26.86-13.4c16.94,0,31,13.42,32.47,30.37a41.58,41.58,0,0,0-8.93.27,2.19,2.19,0,0,0,.33,4.35,1.84,1.84,0,0,0,.33,0,40.49,40.49,0,0,1,10.24,0,22.41,22.41,0,0,1,17.86,21.83A22,22,0,0,1,117.8,117.86Z"/><rect width="157" height="157" style="fill:none"/></g></g></svg>