<svg xmlns="http://www.w3.org/2000/svg" viewBox="0 0 157 157"><title>maintenance</title><g id="Layer_2" data-name="Layer 2"><g id="Layer_1-2" data-name="Layer 1"><path d="M78.5,135.5A57,57,0,0,1,38.12,38.27a2.87,2.87,0,0,1,4.9,2,2.81,2.81,0,0,1-.84,2,51.22,51.22,0,1,0,39.19-15V49.18a2.87,2.87,0,0,1-5.74,0V24.37A2.88,2.88,0,0,1,78.5,21.5a57,57,0,0,1,0,114Z"/><path d="M78.5,22.5a1.87,1.87,0,0,0-1.87,1.87V49.18a1.87,1.87,0,1,0,3.74,0V26.27A52.28,52.28,0,1,1,41.48,41.61,1.87,1.87,0,0,0,38.83,39,56,56,0,1,0,78.5,22.5Z"/><path d="M81.18,88.83c-.2,0-.4,0-.6,0A7.61,7.61,0,0,1,75,85.68L57.51,61.52a2.87,2.87,0,0,1,4-4L85.67,75a7.65,7.65,0,0,1-4.49,13.84Zm-1.55-6.51a1.94,1.94,0,0,0,1.4.78h.14a2,2,0,0,0,1.37-.56,1.93,1.93,0,0,0-.23-2.91l-9.69-7Z"/><path d="M75.8,85.09a6.64,6.64,0,0,0,4.86,2.72,4.61,4.61,0,0,0,.52,0,6.65,6.65,0,0,0,3.91-12L60.93,58.32a1.88,1.88,0,0,0-2.42.2,1.86,1.86,0,0,0-.19,2.41Zm7.1-6.27a2.92,2.92,0,0,1-2,5.27,2.89,2.89,0,0,1-2.13-1.19L68.16,68.16Z"/><rect width="157" height="157" style="fill:none"/></g></g></svg>