<svg xmlns="http://www.w3.org/2000/svg" viewBox="0 0 157 157"><title>marketing</title><g id="Layer_2" data-name="Layer 2"><g id="Layer_1-2" data-name="Layer 1"><circle cx="80.95" cy="76.12" r="2.24"/><path d="M110.22,47.79a9.51,9.51,0,1,0,0,13.45A9.46,9.46,0,0,0,110.22,47.79Zm-3.16,10.29A5,5,0,0,1,99.93,51a5,5,0,0,1,7.13,0A5.06,5.06,0,0,1,107.06,58.08Z"/><path d="M49.42,113.11a2.23,2.23,0,0,0-3,1l-2.67,5.34a7.35,7.35,0,0,1-6.07,4.06l-3.1.21a1.31,1.31,0,0,1-1.41-1.41l.21-3.1a7.38,7.38,0,0,1,4.06-6.08l5.34-2.66a2.23,2.23,0,1,0-2-4l-5.34,2.66a11.88,11.88,0,0,0-6.53,9.78L28.72,122a5.78,5.78,0,0,0,5.78,6.19h.4L38,128a11.89,11.89,0,0,0,9.78-6.53l2.66-5.34A2.23,2.23,0,0,0,49.42,113.11Z"/><path d="M134,23.33a5.17,5.17,0,0,0-4-1.48l-2.08.13A67.44,67.44,0,0,0,80,46.7l-4.9,6-12.82-.38h-.06A37.82,37.82,0,0,0,35.29,63.5L22.16,76.63a2.24,2.24,0,0,0,1.47,3.81l27.79,1.43-1.13,1.4a2.23,2.23,0,0,0-.23,2.47c.44.8.89,1.59,1.37,2.37l-6.59,7.82a2.22,2.22,0,0,0-.31,2.4,29.31,29.31,0,0,0,5.68,8.12,29,29,0,0,0,8.29,5.85,2.14,2.14,0,0,0,1,.22,2.2,2.2,0,0,0,1.4-.5c1.42-1.16,3.06-2.52,4.64-3.84l3.37-2.8c.64.39,1.29.77,2,1.13a2.22,2.22,0,0,0,2.43-.2l1.53-1.18L76.22,133a2.25,2.25,0,0,0,1.43,2,2.22,2.22,0,0,0,.8.15,2.25,2.25,0,0,0,1.58-.65l13.13-13.14a37.78,37.78,0,0,0,11.15-26.91V82.21l5.18-4a67.17,67.17,0,0,0,25.94-49.84l.06-1.09A5.18,5.18,0,0,0,134,23.33ZM28.88,76.24l9.57-9.58a33.39,33.39,0,0,1,23.73-9.84l9.37.28L54.91,77.57Zm33.76,28.51c-1.17,1-2.36,2-3.47,2.88a24.59,24.59,0,0,1-10-9.95L54,92a50.34,50.34,0,0,0,4.78,5.55h0A53.4,53.4,0,0,0,65,102.8Zm37.2-10.29A33.34,33.34,0,0,1,90,118.21l-9.57,9.58-1.34-26L99.84,85.68v8.78ZM131,28.14a62.68,62.68,0,0,1-24.22,46.52l-35,27.21a47.46,47.46,0,0,1-8.1-6L75.42,84.07a2.23,2.23,0,0,0-3.16-3.16L60.45,92.72a47.73,47.73,0,0,1-5.73-7.82L83.46,49.51a63,63,0,0,1,44.73-23.07l2.08-.13a.72.72,0,0,1,.54.2.68.68,0,0,1,.21.54Z"/><rect width="157" height="157" style="fill:none"/></g></g></svg>