<svg xmlns="http://www.w3.org/2000/svg" viewBox="0 0 96 96.01"><title>logo-mobile_2</title><g id="Layer_2" data-name="Layer 2"><g id="Layer_1-2" data-name="Layer 1"><g id="foWCG2.tif"><path d="M48,96A48,48,0,0,1,14.19,14,48,48,0,0,1,82,82,47.65,47.65,0,0,1,48,96Zm.14-93.89A45.93,45.93,0,1,0,80.72,15.83,45.46,45.46,0,0,0,48.16,2.12Z" style="fill:#ddbd5c"/><path d="M48,.38A47.63,47.63,0,1,1,.39,47.21,47.63,47.63,0,0,1,48,.38Zm0,94A46.3,46.3,0,1,0,1.7,48,46.38,46.38,0,0,0,48,94.33Z" style="fill:#ddbd5c"/><path d="M43.6,53.18l-5-9.16-1.23.43a25.08,25.08,0,0,1-3.45,1,23.72,23.72,0,0,1-3.52.34l-1.29.07v7.28H26.86l-.08-.29c-.24-.93-.36-33.83-.12-35.92v-.15l.12-.09,0,0a.53.53,0,0,1,.39-.22c1,0,2-.08,2.93-.08A16.61,16.61,0,0,1,38,18a14.86,14.86,0,0,1,7.88,12l0,.51L43.49,30l0-.26A12.39,12.39,0,0,0,30.84,18.85c-.53,0-1.09,0-1.66.08V43.1a12.06,12.06,0,0,0,2.1.18c2.68,0,7.7-.9,11.15-6.92l.15-.26,2.22.66-.17.39a15.38,15.38,0,0,1-4,5.31l5.79,10.72Z" style="fill:#ddbd5c"/><path d="M44.28,37a14.92,14.92,0,0,1-4.16,5.37L45.75,52.8H43.82l-5-9.24a44.5,44.5,0,0,1-4.94,1.55,45.09,45.09,0,0,1-5.11.43v7.25H27.15c-.25-1-.35-33.72-.11-35.79.06-.05.12-.15.19-.15,3.61-.16,7.2-.27,10.56,1.49A14.44,14.44,0,0,1,45.47,30l-1.64-.37a12.81,12.81,0,0,0-6-9.31,13.77,13.77,0,0,0-9-1.74V43.42c4,.81,10.09-.12,14-6.87Z" style="fill:#ddbd5c"/><path d="M39.43,68.52a17.32,17.32,0,0,1-2.17-.14l-.33,0v-22l.58.36a4.9,4.9,0,0,1,1.88,3.68c0,2.21,0,4.43,0,6.64v9A16,16,0,0,0,55.29,48.6c-.57-7.08-6.82-14.66-15.24-14.66h-.61v3.34L37,39.93V31.76l.25-.09a7.83,7.83,0,0,1,2.62-.41c4.61,0,10.51,2.95,13.73,6.87A18.59,18.59,0,0,1,39.43,68.52Z" style="fill:#ddbd5c"/><path d="M39,66.39A16.4,16.4,0,0,0,55.66,48.57C54.89,38.78,46,33,39.06,33.6v3.54L37.35,39V32c4.22-1.52,12,1.58,15.93,6.34A18.18,18.18,0,0,1,37.31,68V47A4.52,4.52,0,0,1,39,50.37q0,4.7,0,9.41v6.61Z" style="fill:#ddbd5c"/><path d="M67,79.56V56.37H58.73l.61-2.5h7.54C67,52,67,50.13,67,48.32c0-1.64,0-3.35,0-5l0-.37h2.37V79.56Z" style="fill:#ddbd5c"/><path d="M67.37,43.29H69V79.18H67.33V56H59.22l.42-1.74h7.6C67.45,50.54,67.23,47,67.37,43.29Z" style="fill:#ddbd5c"/><path d="M48.64,42.9H51V53.76l1.86.25-.73,2.1-1.1.31a3.76,3.76,0,0,1-1.79,3.52l-.6.41Z" style="fill:#ddbd5c"/><path d="M50.62,54.09l1.73.23-.51,1.48-1.22.35A3.39,3.39,0,0,1,49,59.63V43.28h1.6Z" style="fill:#ddbd5c"/><path d="M48.61,79.56V68.17l2-1.19.15.46c.35,1.09.38,10.12.12,11.79l-.05.33Z" style="fill:#ddbd5c"/><path d="M50.47,79.18H49V68.38l1.38-.83A76.71,76.71,0,0,1,50.47,79.18Z" style="fill:#ddbd5c"/></g></g></g></svg>