<svg xmlns="http://www.w3.org/2000/svg" viewBox="0 0 382 382"><title>logo-mobile_1</title><g id="Layer_2" data-name="Layer 2"><g id="Layer_1-2" data-name="Layer 1"><g id="Zm7YUy.tif"><path d="M383,179v26c-.74,5.43-1.35,10.87-2.25,16.27-8.17,49.09-31.51,89.44-70.38,120.49a184.33,184.33,0,0,1-93.09,39.41c-4.1.53-8.19,1.22-12.28,1.83H179a28.85,28.85,0,0,0-3.85-.86c-27-2.24-52.39-9.73-75.77-23.24-54.63-31.56-87-78.58-96.51-141.1C2.22,213.54,1.62,209.27,1,205V179c.74-5.43,1.36-10.87,2.24-16.27,6.38-39.26,23-73.56,50.48-102.31Q99.89,12.18,166.22,2.86C170.48,2.27,174.74,1.62,179,1h26a27.37,27.37,0,0,0,3.85.86A184.63,184.63,0,0,1,256,12.07C322.92,35.61,371.88,96,381.14,166.2,381.71,170.48,382.38,174.73,383,179Zm-265.26-3.72v-97C144,74.37,170.93,89.06,176.54,121l5.92,1.22c-1.58-23-18.43-43.19-40.29-49-10-2.68-20.15-1.93-30.29-1.66-.25,0-.49.39-.74.6-1,9.45-.55,135.1.54,138.74h5.91V182.07c14,.82,26.86-.88,38.75-7.87l20,36.72h7.24l-21.65-40.2c3.21-3.41,6.4-6.36,9.06-9.74s4.7-7.06,7.21-10.9c-1.71-.71-2.58-1.17-3.51-1.44a24.19,24.19,0,0,0-2.89-.47C159.88,169.21,141.79,177.64,117.74,175.28Zm39.72-39.12c29.72-1.68,65.41,22.89,65,64.21C222,243.18,185,265.58,157.4,263.51v-5.34q0-28.23,0-56.46c0-4.89-2.8-10.66-6.27-13v81.19c26.94,3.21,54.31-10.52,68.54-35.27a70,70,0,0,0-6.46-79.1c-15.37-18.89-44.63-30.71-62.41-25,0,4.19-.05,8.51,0,12.82s-.29,8.71.39,14.09l6.26-6.85Zm116.33,177v-139h-6.26v42.59h-29.8L236,223.2h31.72v89.91ZM196.51,174v64.05c2.22-2.79,4.26-4.52,5.16-6.71,1-2.35.84-5.14,1.2-7.76l4.21-.85,2.09-5.65-6.92-1V174Zm-.11,97.35v41.7h5.42c1-6.23.79-40.85-.33-44.57Z" transform="translate(-1 -1)"/></g></g></g></svg>