<svg xmlns="http://www.w3.org/2000/svg" viewBox="0 0 385 664.35"><title>logo-desktop</title><g id="Layer_2" data-name="Layer 2"><g id="Layer_1-2" data-name="Layer 1"><g id="foWCG2.tif"><path d="M192.43,252.67A126.23,126.23,0,0,1,103.52,36.82,126.32,126.32,0,0,1,281.86,215.76a125.31,125.31,0,0,1-89.27,36.91Zm.37-247.1C126,5.57,71.7,59.76,71.66,126.38A120.84,120.84,0,1,0,278.6,41.66,119.66,119.66,0,0,0,192.93,5.57Z" transform="translate(-0.53)" style="fill:#ddbd5c"/><path d="M192.61,1a125.34,125.34,0,0,1-.18,250.67C121,251.59,66,192.87,67.2,124.24A125.59,125.59,0,0,1,192.61,1Zm0,247.23c67.49-.33,120.76-54.51,121.71-120,1-68.62-54.58-123.59-121.39-123.66C125.41,4.5,70.7,59.05,70.66,126.37,70.63,193.43,125.48,248.23,192.61,248.23Z" transform="translate(-0.53)" style="fill:#ddbd5c"/><path d="M180.91,139.94l-13.12-24.09c-1.09.36-2.17.74-3.23,1.12a66.72,66.72,0,0,1-9.09,2.72,63.31,63.31,0,0,1-9.27.9c-1.11,0-2.24.1-3.39.18v19.15h-5.95l-.19-.75c-.65-2.46-.95-89-.34-94.53l0-.39.3-.26.07-.07a1.48,1.48,0,0,1,1-.58c2.6-.11,5.16-.22,7.72-.22,5.8,0,13.38.49,20.58,4.26a39.1,39.1,0,0,1,20.75,31.49l.1,1.35-6.3-1.41-.11-.67c-1.7-10.52-6.9-18.53-15.45-23.81a32.84,32.84,0,0,0-17.75-4.72c-1.39,0-2.86.07-4.37.2v63.62a31.71,31.71,0,0,0,5.54.48c7.06,0,20.26-2.37,29.35-18.23l.4-.69,5.82,1.75-.44,1a39.94,39.94,0,0,1-10.61,14l15.23,28.21Z" transform="translate(-0.53)" style="fill:#ddbd5c"/><path d="M182.71,97.37c-2.58,5.93-6.43,10.17-10.94,14.14l14.8,27.43h-5.06c-4.37-8-8.83-16.21-13.24-24.3-4.46,1.44-8.64,3.21-13,4.07s-8.71.77-13.45,1.13v19.08h-4.19c-.66-2.54-.91-88.73-.3-94.17.17-.14.33-.4.5-.41,9.51-.42,18.95-.71,27.8,3.92A38,38,0,0,1,185.84,79l-4.32-1c-1.71-10.55-6.8-18.87-15.92-24.5C158.37,49,150.47,48,142,48.9v65.35c10.44,2.16,26.57-.29,36.76-18.07Z" transform="translate(-0.53)" style="fill:#ddbd5c"/><path d="M169.94,180.33a43.2,43.2,0,0,1-5.7-.38l-.86-.11V121.93l1.52.95c2.63,1.63,4.95,6.15,4.95,9.67q0,8.74,0,17.48v23.7a42.19,42.19,0,0,0,41.81-45.83c-1.47-18.63-17.94-38.59-40.09-38.59-.54,0-1.08,0-1.61,0v8.77l-6.49,7V83.58l.66-.24A20.22,20.22,0,0,1,171,82.26c12.14,0,27.68,7.78,36.15,18.08a48.81,48.81,0,0,1,3.91,56.57C202.16,171.35,186.4,180.32,169.94,180.33Z" transform="translate(-0.53)" style="fill:#ddbd5c"/><path d="M168.86,174.72a43.19,43.19,0,0,0,43.81-46.89c-2-25.77-25.57-41-43.7-39.41v9.32l-4.49,4.81V84.28c11.1-4,31.62,4.18,41.91,16.7a47.58,47.58,0,0,1,3.83,55.41c-10.13,16.41-28.73,24.84-45.84,22.57V123.73c2.33,1.45,4.47,5.67,4.47,8.82,0,8.26,0,16.51,0,24.76v17.41Z" transform="translate(-0.53)" style="fill:#ddbd5c"/><path d="M242.38,209.37v-61H220.75l1.58-6.57h19.85c.25-4.93.21-9.84.18-14.6,0-4.34-.05-8.82.13-13.28l0-1h6.25v96.44Z" transform="translate(-0.53)" style="fill:#ddbd5c"/><path d="M243.48,113.93h4.29v94.44h-4.39v-61H222c.41-1.71.71-3,1.1-4.57h20C243.69,133,243.1,123.56,243.48,113.93Z" transform="translate(-0.53)" style="fill:#ddbd5c"/><path d="M194.19,112.91h6.2v28.57l4.9.64-1.92,5.53-2.89.84a9.91,9.91,0,0,1-4.72,9.25l-1.57,1.08Z" transform="translate(-0.53)" style="fill:#ddbd5c"/><path d="M199.39,142.35l4.56.6-1.35,3.89-3.2.92a8.92,8.92,0,0,1-4.21,9.16v-43h4.2Z" transform="translate(-0.53)" style="fill:#ddbd5c"/><path d="M194.1,209.36v-30l5.2-3.12.38,1.2c.93,2.88,1,26.65.32,31.05l-.13.84Z" transform="translate(-0.53)" style="fill:#ddbd5c"/><path d="M199,208.36H195.1V180l3.63-2.19C199.52,180.24,199.73,203.73,199,208.36Z" transform="translate(-0.53)" style="fill:#ddbd5c"/></g><g id="r3y15A.tif"><path d="M.53,464c9.14-.15,18.3-.7,27.42-.36,12.54.48,23.78,5,32.26,14.36a42.77,42.77,0,0,1,8.23,14.47,42,42,0,0,1,.38,26.47,39.88,39.88,0,0,1-19.6,23.85c-13.34,7.39-27.72,7.05-42.2,6.53-2.16-.08-4.32-.21-6.49-.32Zm16.73,70a54.87,54.87,0,0,0,7.18-.07c2.77-.37,5.48-1.22,8.22-1.83,10.45-2.37,17.14-8.78,19.52-19.16A28.32,28.32,0,0,0,48,489.77c-4.45-6.53-11.05-9.19-18.27-10.76-4.1-.9-8.37-2.29-12.43.22Z" transform="translate(-0.53)"/><path d="M.53,351c3.78-.43,7.6-.63,11.32-1.32a55.67,55.67,0,0,1,29,2.6c20,7.12,21.21,27.15,13.35,39.94-2.32,3.78-5.47,7-8.78,11.23l19.91,31H45.17L28,406.2H16.69v28.39L.53,435Zm16.35,14.1v26.34c4.12,0,8,.47,11.67-.1,6.05-.94,10.45-4,12.38-10.45,1.25-4.2-.37-7.41-1.45-10.77C33.07,363.06,25,364.52,16.88,365.1Z" transform="translate(-0.53)"/><path d="M162.53,392.63c1.16,23.44-18.6,44-44.46,43.81s-44.68-19.22-44.59-43.95c.09-25.42,19.24-43.71,44.61-43.83C143.26,348.55,163.64,368.17,162.53,392.63Zm-17.91-.31a26.2,26.2,0,0,0-8.05-21.19c-8.57-8.45-21.31-10-30.84-4.48C89.15,376.32,86.58,397.57,98,411.9c7.92,10,23,11.74,33.41,5.76C140.85,412.17,145.09,403.65,144.62,392.32Z" transform="translate(-0.53)"/><path d="M241.34,548.94V465a23.91,23.91,0,0,1,4.34-.93c8.47-.24,16.94-.59,25.41-.42a34.3,34.3,0,0,1,17.73,5.56c10.88,6.79,11.84,24.41,2.62,32.45a22.7,22.7,0,0,0-1.7,1.82c2.25,1.43,4.72,2.57,6.66,4.31,10.41,9.32,9.21,29.07-3.5,35.9a39.32,39.32,0,0,1-15.95,5C265.22,549.45,253.42,548.94,241.34,548.94Zm16.58-37.09V534.1a35.75,35.75,0,0,0,25.23-3.34c3-3.9,4.77-8,2.16-12.8s-6.88-6.27-12.06-6.14C268.27,511.94,263.29,511.85,257.92,511.85Zm-.17-13h17.48a4.57,4.57,0,0,0,.63-.42c.83-.81,1.65-1.62,2.46-2.44a10,10,0,0,0-.93-15.15c-6-4.65-12.74-3.34-19.64-2.73Z" transform="translate(-0.53)"/><path d="M206.22,548.48q-8.64-14.12-17.31-28.31H177.69v28.37H161.91v-84c4.77-.38,9.66-.9,14.57-1.14,8.49-.42,16.83,0,25.12,2.65,14.4,4.64,22.41,21.68,15.92,35.19A29.34,29.34,0,0,1,204.86,515l21.46,33.52ZM177.7,479.15v26.07c5.23,1.66,10.14.58,15-1.18,9.36-3.4,10.85-9.4,9-17.62-.1-.48-.28-.95-.41-1.37C195.93,478.36,186.05,476.21,177.7,479.15Z" transform="translate(-0.53)"/><path d="M276,349.86h6.05l38.49,84.59H302.48c-2.2-4.4-4.39-8.78-6.64-13.26h-33.9c-2.18,4.34-4.45,8.85-6.74,13.43H237.6c5.5-14.78,12.7-28.41,18.79-42.48S269.42,364,276,349.86Zm2.94,31c-3.84,9.11-7.33,17.38-11,26h21.8Z" transform="translate(-0.53)"/><path d="M142.06,548.63H88.67V464.44H140.6V477.8H105.42v21.09h28.83v13.89H105.3V535h36.76Z" transform="translate(-0.53)"/><path d="M327.93,464l19.47,32.61L367,464.24h18.56c-1.85,3.39-3.41,6.53-5.23,9.52-7.44,12.28-14.89,24.57-22.52,36.75a13.72,13.72,0,0,0-2.29,7.9c.12,8.32,0,16.65,0,25v5.17H338.86c-.1-1.37-.31-2.79-.31-4.21,0-9,0-18-.07-27a10.83,10.83,0,0,0-1.14-5.22c-7.6-12.73-15.38-25.35-23.07-38-1.78-2.94-3.38-6-5.59-9.91C315.3,463.84,321.32,464.1,327.93,464Z" transform="translate(-0.53)"/><path d="M128.19,664.35c-24.9-1-43.42-17.84-43.54-43.76-.12-26.07,18.29-44.41,43.56-44.2,26.59.21,43.79,18,43.91,43.83S154.35,663.21,128.19,664.35Zm.23-79.37c-18.94-.74-32.33,14.46-33.68,32.17-1.18,15.52,4.87,28.25,19.54,35.46a31.39,31.39,0,0,0,26.67.71c12.94-5.6,20-16.24,21.05-30.53C163.59,602.2,147.21,583.78,128.42,585Z" transform="translate(-0.53)"/><path d="M214,434.78c-5.09,0-9.57,0-14.05,0a11.31,11.31,0,0,1-2.17-.47V401.06l-30-50h19.46q9.28,15.54,19,31.85l19.37-32h18.75c-5.34,8.85-10.42,17.3-15.55,25.73-4,6.62-8.18,13.17-12.13,19.84a16.22,16.22,0,0,0-2.43,8.94c.24,8.15.1,16.31.06,24.47C214.36,431.39,214.14,433,214,434.78Z" transform="translate(-0.53)"/><path d="M1.74,578.26H11.1v36.33H55.6V578.46H65v83.16H55.79V623.25H11.44v38.48H1.74Z" transform="translate(-0.53)"/><path d="M334.44,434.44V350.89h16.08v69.19h34.34v14.36Z" transform="translate(-0.53)"/><path d="M268.75,654.52h40.5v7.16H259.1V578.37H308v7.32H268.71v29.17H301v8H268.75Z" transform="translate(-0.53)"/><path d="M216.08,585.67v76h-9.56V586h-25.7v-7.7h60.69v7.33Z" transform="translate(-0.53)"/><path d="M378.39,654.38v7.27H330.84V578.46h8.49v75.92Z" transform="translate(-0.53)"/></g></g></g></svg>