<svg xmlns="http://www.w3.org/2000/svg" viewBox="0 0 385 663.35"><title>logo-desktop</title><g id="Layer_2" data-name="Layer 2"><g id="Layer_1-2" data-name="Layer 1"><g id="foWCG2.tif"><path d="M192.61,0a125.34,125.34,0,0,1-.18,250.67C121,250.59,66,191.87,67.2,123.24A125.59,125.59,0,0,1,192.61,0Zm0,247.23c67.49-.33,120.76-54.51,121.71-120,1-68.62-54.58-123.59-121.39-123.66C125.41,3.5,70.7,58.05,70.66,125.37,70.63,192.43,125.48,247.23,192.61,247.23Z" transform="translate(-0.53)" style="fill:#ddbd5c"/><path d="M182.71,96.37c-2.58,5.93-6.43,10.17-10.94,14.14l14.8,27.43h-5.06c-4.37-8-8.83-16.21-13.24-24.3-4.46,1.44-8.64,3.21-13,4.07s-8.71.77-13.45,1.13v19.08h-4.19c-.66-2.54-.91-88.73-.3-94.17.17-.14.33-.4.5-.41,9.51-.42,18.95-.71,27.8,3.92A38,38,0,0,1,185.84,78l-4.32-1c-1.71-10.55-6.8-18.87-15.92-24.5C158.37,48,150.47,47,142,47.9v65.35c10.44,2.16,26.57-.29,36.76-18.07Z" transform="translate(-0.53)" style="fill:#ddbd5c"/><path d="M168.86,173.72a43.19,43.19,0,0,0,43.81-46.89c-2-25.77-25.57-41-43.7-39.41v9.32l-4.49,4.81V83.28c11.1-4,31.62,4.18,41.91,16.7a47.58,47.58,0,0,1,3.83,55.41c-10.13,16.41-28.73,24.84-45.84,22.57V122.73c2.33,1.45,4.47,5.67,4.47,8.82,0,8.26,0,16.51,0,24.76v17.41Z" transform="translate(-0.53)" style="fill:#ddbd5c"/><path d="M243.48,112.93h4.29v94.44h-4.39v-61H222c.41-1.71.71-3,1.1-4.57h20C243.69,132,243.1,122.56,243.48,112.93Z" transform="translate(-0.53)" style="fill:#ddbd5c"/><path d="M199.39,141.35l4.56.6-1.35,3.89-3.2.92a8.92,8.92,0,0,1-4.21,9.16v-43h4.2Z" transform="translate(-0.53)" style="fill:#ddbd5c"/><path d="M199,207.36H195.1V179l3.63-2.19C199.52,179.24,199.73,202.73,199,207.36Z" transform="translate(-0.53)" style="fill:#ddbd5c"/></g><g id="r3y15A.tif"><path d="M.53,463c9.14-.15,18.3-.7,27.42-.36,12.54.48,23.78,5,32.26,14.36a42.77,42.77,0,0,1,8.23,14.47,42,42,0,0,1,.38,26.47,39.88,39.88,0,0,1-19.6,23.85c-13.34,7.39-27.72,7.05-42.2,6.53-2.16-.08-4.32-.21-6.49-.32Zm16.73,70a54.87,54.87,0,0,0,7.18-.07c2.77-.37,5.48-1.22,8.22-1.83,10.45-2.37,17.14-8.78,19.52-19.16A28.32,28.32,0,0,0,48,488.77c-4.45-6.53-11.05-9.19-18.27-10.76-4.1-.9-8.37-2.29-12.43.22Z" transform="translate(-0.53)"/><path d="M.53,350c3.78-.43,7.6-.63,11.32-1.32a55.67,55.67,0,0,1,29,2.6c20,7.12,21.21,27.15,13.35,39.94-2.32,3.78-5.47,7-8.78,11.23l19.91,31H45.17L28,405.2H16.69v28.39L.53,434Zm16.35,14.1v26.34c4.12,0,8,.47,11.67-.1,6.05-.94,10.45-4,12.38-10.45,1.25-4.2-.37-7.41-1.45-10.77C33.07,362.06,25,363.52,16.88,364.1Z" transform="translate(-0.53)"/><path d="M162.53,391.63c1.16,23.44-18.6,44-44.46,43.81s-44.68-19.22-44.59-43.95c.09-25.42,19.24-43.71,44.61-43.83C143.26,347.55,163.64,367.17,162.53,391.63Zm-17.91-.31a26.2,26.2,0,0,0-8.05-21.19c-8.57-8.45-21.31-10-30.84-4.48C89.15,375.32,86.58,396.57,98,410.9c7.92,10,23,11.74,33.41,5.76C140.85,411.17,145.09,402.65,144.62,391.32Z" transform="translate(-0.53)"/><path d="M241.34,547.94V464a23.91,23.91,0,0,1,4.34-.93c8.47-.24,16.94-.59,25.41-.42a34.3,34.3,0,0,1,17.73,5.56c10.88,6.79,11.84,24.41,2.62,32.45a22.7,22.7,0,0,0-1.7,1.82c2.25,1.43,4.72,2.57,6.66,4.31,10.41,9.32,9.21,29.07-3.5,35.9a39.32,39.32,0,0,1-15.95,5C265.22,548.45,253.42,547.94,241.34,547.94Zm16.58-37.09V533.1a35.75,35.75,0,0,0,25.23-3.34c3-3.9,4.77-8,2.16-12.8s-6.88-6.27-12.06-6.14C268.27,510.94,263.29,510.85,257.92,510.85Zm-.17-13h17.48a4.57,4.57,0,0,0,.63-.42c.83-.81,1.65-1.62,2.46-2.44a10,10,0,0,0-.93-15.15c-6-4.65-12.74-3.34-19.64-2.73Z" transform="translate(-0.53)"/><path d="M206.22,547.48q-8.64-14.12-17.31-28.31H177.69v28.37H161.91v-84c4.77-.38,9.66-.9,14.57-1.14,8.49-.42,16.83,0,25.12,2.65,14.4,4.64,22.41,21.68,15.92,35.19A29.34,29.34,0,0,1,204.86,514l21.46,33.52ZM177.7,478.15v26.07c5.23,1.66,10.14.58,15-1.18,9.36-3.4,10.85-9.4,9-17.62-.1-.48-.28-.95-.41-1.37C195.93,477.36,186.05,475.21,177.7,478.15Z" transform="translate(-0.53)"/><path d="M276,348.86h6.05l38.49,84.59H302.48c-2.2-4.4-4.39-8.78-6.64-13.26h-33.9c-2.18,4.34-4.45,8.85-6.74,13.43H237.6c5.5-14.78,12.7-28.41,18.79-42.48S269.42,363,276,348.86Zm2.94,31c-3.84,9.11-7.33,17.38-11,26h21.8Z" transform="translate(-0.53)"/><path d="M142.06,547.63H88.67V463.44H140.6V476.8H105.42v21.09h28.83v13.89H105.3V534h36.76Z" transform="translate(-0.53)"/><path d="M327.93,463l19.47,32.61L367,463.24h18.56c-1.85,3.39-3.41,6.53-5.23,9.52-7.44,12.28-14.89,24.57-22.52,36.75a13.72,13.72,0,0,0-2.29,7.9c.12,8.32,0,16.65,0,25v5.17H338.86c-.1-1.37-.31-2.79-.31-4.21,0-9,0-18-.07-27a10.83,10.83,0,0,0-1.14-5.22c-7.6-12.73-15.38-25.35-23.07-38-1.78-2.94-3.38-6-5.59-9.91C315.3,462.84,321.32,463.1,327.93,463Z" transform="translate(-0.53)"/><path d="M128.19,663.35c-24.9-1-43.42-17.84-43.54-43.76-.12-26.07,18.29-44.41,43.56-44.2,26.59.21,43.79,18,43.91,43.83S154.35,662.21,128.19,663.35Zm.23-79.37c-18.94-.74-32.33,14.46-33.68,32.17-1.18,15.52,4.87,28.25,19.54,35.46a31.39,31.39,0,0,0,26.67.71c12.94-5.6,20-16.24,21.05-30.53C163.59,601.2,147.21,582.78,128.42,584Z" transform="translate(-0.53)"/><path d="M214,433.78c-5.09,0-9.57,0-14.05,0a11.31,11.31,0,0,1-2.17-.47V400.06l-30-50h19.46q9.28,15.54,19,31.85l19.37-32h18.75c-5.34,8.85-10.42,17.3-15.55,25.73-4,6.62-8.18,13.17-12.13,19.84a16.22,16.22,0,0,0-2.43,8.94c.24,8.15.1,16.31.06,24.47C214.36,430.39,214.14,432,214,433.78Z" transform="translate(-0.53)"/><path d="M1.74,577.26H11.1v36.33H55.6V577.46H65v83.16H55.79V622.25H11.44v38.48H1.74Z" transform="translate(-0.53)"/><path d="M334.44,433.44V349.89h16.08v69.19h34.34v14.36Z" transform="translate(-0.53)"/><path d="M268.75,653.52h40.5v7.16H259.1V577.37H308v7.32H268.71v29.17H301v8H268.75Z" transform="translate(-0.53)"/><path d="M216.08,584.67v76h-9.56V585h-25.7v-7.7h60.69v7.33Z" transform="translate(-0.53)"/><path d="M378.39,653.38v7.27H330.84V577.46h8.49v75.92Z" transform="translate(-0.53)"/></g></g></g></svg>