<svg xmlns="http://www.w3.org/2000/svg" viewBox="0 0 122.5 119.42"><title>github</title><g id="Layer_2" data-name="Layer 2"><g id="Layer_1-2" data-name="Layer 1"><g id="n8gBF1.tif"><path d="M64.6.08c1.25.14,2.51.27,3.76.42A59.84,59.84,0,0,1,94.45,9.78a60.66,60.66,0,0,1,24.33,30.15,59.92,59.92,0,0,1,3.69,25.48,61.08,61.08,0,0,1-33.28,50.42c-2.57,1.29-5.29,2.31-8,3.38a5,5,0,0,1-2.11.23,2.69,2.69,0,0,1-2.46-2.4,10.32,10.32,0,0,1-.06-1.36c0-5.38.06-10.76.06-16.14a16.33,16.33,0,0,0-2.4-9.16c-.45-.69-1-1.31-1.59-2l3.06-.46A37.78,37.78,0,0,0,87,84.48,22,22,0,0,0,98.19,72a35.6,35.6,0,0,0,1.56-19.81,21.81,21.81,0,0,0-5.14-10A1,1,0,0,1,94.38,41a21.68,21.68,0,0,0,0-13.19c-.17-.6-.43-1.17-.57-1.77a.9.9,0,0,0-1-.73,14.79,14.79,0,0,0-5.55.92,42,42,0,0,0-9.91,5.09,1.42,1.42,0,0,1-1.32.21,54.81,54.81,0,0,0-20.67-1.51c-2.94.36-5.82,1.05-8.74,1.55a1.71,1.71,0,0,1-1.1-.24A38.71,38.71,0,0,0,34.64,26,31.3,31.3,0,0,0,30,25.36c-.5-.06-.79.19-1,.72a22.91,22.91,0,0,0-.54,15.24,1.05,1.05,0,0,1-.25.84A24,24,0,0,0,23.05,52a29.79,29.79,0,0,0-.63,9,34,34,0,0,0,2.84,12.57,22.53,22.53,0,0,0,10.82,11,42.51,42.51,0,0,0,13.63,3.69l.35,0c-.55.71-1.11,1.36-1.58,2.07a13.68,13.68,0,0,0-2,5.46,1.1,1.1,0,0,1-.79,1,15.62,15.62,0,0,1-9.47.94.94.94,0,0,0-.17,0,5.31,5.31,0,0,1,0,1.12c0,.14-.3.29-.49.35a1.64,1.64,0,0,1-1.91-.88c-.15-.49.08-.74,1-1.09-3-1.31-4.89-3.68-6.57-6.33a12.18,12.18,0,0,0-7.61-5.57,5.8,5.8,0,0,0-3.25,0c-1,.34-1.24,1-.52,1.76a8.15,8.15,0,0,0,1.78,1.54,16.49,16.49,0,0,1,6,6.91,16,16,0,0,1,.75,1.63c1.95,5,5.83,7.42,10.9,8.29a25.53,25.53,0,0,0,9.34-.34l.59-.09c0,.26,0,.47,0,.68,0,3.39,0,6.79.11,10.18.09,2.8-2,4.14-4.62,3.26a58.72,58.72,0,0,1-15.75-8.08C13.22,102,5,89.8,1.66,74.53c-3.7-17-.77-32.88,8.92-47.3,9.43-14,22.6-22.69,39.2-26C52.37.72,55,.54,57.66.2c.21,0,.42-.08.63-.12Z" transform="translate(-0.11 -0.08)"/><path d="M44.83,100.55c-.42-.38-.94-.63-1-.93a1.34,1.34,0,0,1,.66-1,1.31,1.31,0,0,1,1.64.18c.15.16.22.64.11.74A11.8,11.8,0,0,1,44.83,100.55Z" transform="translate(-0.11 -0.08)"/><path d="M30.06,95.39c1,0,1.89.85,1.77,1.51a1,1,0,0,1-.71.69,1.5,1.5,0,0,1-1.51-1.48C29.65,95.81,30,95.55,30.06,95.39Z" transform="translate(-0.11 -0.08)"/><path d="M40,100.32c-.29-.12-.7-.16-.91-.39a1.05,1.05,0,0,1-.18-.93c.33-.7,1.85-.72,2.31-.08a.72.72,0,0,1-.34,1.12A7.1,7.1,0,0,1,40,100.32Z" transform="translate(-0.11 -0.08)"/><path d="M28.43,93.09c-.15.09-.43.37-.72.38A1.33,1.33,0,0,1,26.59,92a1,1,0,0,1,.68-.61C27.87,91.33,28.5,92.18,28.43,93.09Z" transform="translate(-0.11 -0.08)"/><path d="M26.29,89.73c-.16.08-.39.32-.65.34a1.13,1.13,0,0,1-1.08-1.17.89.89,0,0,1,.61-.55C25.69,88.29,26.3,89,26.29,89.73Z" transform="translate(-0.11 -0.08)"/><path d="M22.17,86l1,1.13c-.23.15-.46.44-.69.44a.82.82,0,0,1-.92-.79C21.51,86.58,21.84,86.38,22.17,86Z" transform="translate(-0.11 -0.08)"/></g></g></g></svg>