<svg xmlns="http://www.w3.org/2000/svg" viewBox="0 0 119.09 119"><title>linkedin</title><g id="Layer_2" data-name="Layer 2"><g id="Layer_1-2" data-name="Layer 1"><g id="lULwgG.tif"><path d="M119.62,7.21v105c-1.76,5.41-5.58,7.29-11.12,7.27q-48.69-.18-97.38,0C4.57,119.49.5,115.52.53,109Q.8,60,.56,11.07C.54,5.82,2.4,2.26,7.38.46H112.87A11.07,11.07,0,0,1,119.62,7.21Zm-17.81,94.5c.06-.58.12-.91.12-1.25,0-11,.11-22-.1-33a51.71,51.71,0,0,0-1.54-10.76A16.13,16.13,0,0,0,94,47.16c-6.62-4.92-22.14-5.82-29.17,4.45a8.87,8.87,0,0,1-1.1,1V45.24H47.11v56.41H64.55V98.73c0-8.49-.12-17,.07-25.46a28.6,28.6,0,0,1,1.47-8.61c1.39-4.06,5.25-5.89,10.13-5.44,4.07.38,6.68,2.72,7.5,7a36.74,36.74,0,0,1,.57,6.45c.07,8.75,0,17.49,0,26.24v2.76ZM18.47,45.21v56.43H35.76V45.21Zm8.68-8a10.2,10.2,0,0,0-.09-20.39,10.32,10.32,0,0,0-10.24,10A10.18,10.18,0,0,0,27.15,37.25Z" transform="translate(-0.53 -0.46)"/></g></g></g></svg>